# xmcd
#
# Track frame offsets:
#	150
#	17489
#	40113
#	58115
#	74854
#	90722
#	113123
#	132043
#	147005
#	165621
#	180082
#	193569
#
# Disc length: 2885 seconds
#
# Revision: 1
# Processed by: cddbd v1.5.2PL0 Copyright (c) Steve Scherf et al.
# Submitted via: audiograbber 1.83.01
#
DISCID=9c0b430c
DTITLE=Funkolution - ...In Town
DYEAR=2006
DGENRE=Funk
TTITLE0=Bowl Of Soul
TTITLE1=Let The Funk Out
TTITLE2=Coming Home
TTITLE3=Saturday Night
TTITLE4=Freak It Out
TTITLE5=If You Ain't Got Soul
TTITLE6=In Town
TTITLE7=I Know You Won't
TTITLE8=A Proclamation Of Funk
TTITLE9=Witches' Brew
TTITLE10=Tonight's The Night
TTITLE11=Sunshine
EXTD=
EXTT0=
EXTT1=
EXTT2=
EXTT3=
EXTT4=
EXTT5=
EXTT6=
EXTT7=
EXTT8=
EXTT9=
EXTT10=
EXTT11=
PLAYORDER=
